<?xml version="1.0" standalone="no"?>
<!DOCTYPE svg PUBLIC "-//W3C//DTD SVG 20010904//EN"
 "http://www.w3.org/TR/2001/REC-SVG-20010904/DTD/svg10.dtd">
<svg version="1.0" xmlns="http://www.w3.org/2000/svg"
 width="1707.000000pt" height="1707.000000pt" viewBox="0 0 1707.000000 1707.000000"
 preserveAspectRatio="xMidYMid meet">
<metadata>
Created by potrace 1.14, written by Peter Selinger 2001-2017
</metadata>
<g transform="translate(0.000000,1707.000000) scale(0.100000,-0.100000)"
fill="#000000" stroke="none">
<path d="M4859 16563 c-19 -22 -16 -191 6 -358 2 -16 6 -62 10 -101 3 -39 7
-80 9 -90 2 -11 7 -55 11 -99 3 -44 8 -93 10 -109 2 -16 6 -57 9 -90 4 -34 8
-71 10 -81 2 -11 7 -56 11 -100 4 -44 8 -82 10 -85 6 -10 18 -156 18 -215 0
-56 -8 -143 -17 -190 -2 -11 -7 -54 -10 -95 -4 -41 -9 -95 -12 -120 -2 -25 -6
-74 -9 -110 -5 -64 -10 -124 -20 -250 -3 -36 -7 -81 -10 -100 -2 -19 -7 -64
-10 -100 -23 -244 -90 -653 -126 -775 -33 -113 -59 -129 -219 -140 -122 -8
-143 -13 -163 -37 -35 -41 -12 -150 78 -382 76 -196 99 -319 99 -531 0 -137
-10 -193 -45 -271 -52 -118 -210 -163 -409 -117 -8 2 -51 6 -95 9 -66 6 -87 3
-115 -11 -50 -25 -90 -65 -90 -91 0 -57 81 -268 205 -533 101 -216 144 -346
139 -412 -5 -58 -44 -175 -74 -224 -25 -40 -104 -82 -188 -100 -52 -11 -72 -9
-198 16 -175 36 -219 37 -235 7 -7 -12 -11 -44 -10 -72 3 -106 80 -275 269
-598 200 -342 244 -456 246 -638 1 -114 -8 -140 -62 -177 -54 -35 -238 -23
-447 30 -94 24 -346 106 -390 127 -132 62 -365 145 -436 155 -129 18 -156 5
-195 -97 -37 -96 -70 -155 -103 -185 -63 -57 -255 -130 -476 -183 -208 -49
-214 -49 -520 -50 -363 0 -636 14 -940 50 -44 5 -102 12 -130 15 -27 3 -61 8
-75 10 -51 10 -141 7 -155 -5 -30 -25 17 -102 215 -355 124 -158 300 -417 300
-440 0 -2 13 -26 28 -52 16 -26 61 -111 102 -188 40 -77 80 -153 90 -170 62
-108 159 -299 378 -745 92 -187 158 -301 199 -345 33 -35 88 -75 102 -75 6 0
35 -11 66 -25 39 -18 59 -34 66 -53 10 -24 7 -113 -5 -168 -2 -12 -7 -39 -10
-60 -17 -105 -55 -210 -106 -290 -18 -30 -7 -64 37 -108 32 -32 165 -130 198
-146 6 -3 73 -41 149 -85 202 -116 255 -170 270 -271 4 -22 8 -49 10 -59 2
-11 7 -47 11 -80 19 -161 130 -395 233 -492 24 -23 110 -88 191 -144 281 -197
345 -258 372 -355 27 -96 21 -300 -10 -394 -36 -109 -184 -383 -279 -517 -6
-10 -53 -78 -103 -152 -75 -111 -131 -190 -181 -256 -81 -108 -185 -216 -316
-330 -97 -84 -136 -143 -130 -193 6 -43 66 -175 99 -217 28 -34 53 -44 142
-50 60 -5 166 -19 302 -40 17 -3 50 -10 75 -15 25 -5 131 -25 235 -44 228 -42
197 -36 430 -80 237 -45 214 -40 319 -65 114 -27 170 -52 192 -86 15 -24 16
-33 5 -78 -25 -110 -25 -136 0 -164 45 -47 81 -55 224 -49 72 3 140 7 152 10
38 8 244 19 343 19 154 -1 240 -34 281 -107 21 -35 24 -55 25 -146 1 -58 -5
-134 -12 -170 -8 -36 -16 -74 -18 -85 -6 -30 -61 -218 -91 -310 -14 -44 -28
-90 -31 -103 -2 -13 -11 -42 -19 -65 -18 -56 -26 -110 -17 -123 22 -34 88 -47
160 -30 78 18 277 112 397 188 33 21 66 41 74 45 8 3 62 36 120 71 110 68 292
159 333 168 157 31 348 51 392 40 13 -3 40 -28 60 -56 32 -44 40 -50 71 -50
67 0 124 43 350 260 155 150 180 173 265 250 45 41 88 80 94 85 91 81 249 200
318 238 45 25 105 40 213 52 154 18 190 35 254 120 35 47 131 185 158 230 77
124 208 350 278 480 200 370 297 526 441 715 83 109 92 120 217 255 74 80 189
192 321 312 27 24 153 100 211 127 33 16 68 32 77 37 41 21 268 108 323 124
72 20 204 15 257 -11 59 -29 146 -148 340 -464 52 -85 106 -175 120 -200 14
-25 51 -90 83 -145 78 -134 220 -414 282 -555 85 -193 174 -479 197 -635 34
-221 193 -583 283 -642 20 -14 30 -14 66 -3 62 18 103 46 117 81 13 30 21 221
11 237 -3 5 -32 23 -64 40 -161 88 -185 129 -337 576 -201 593 -272 744 -620
1326 -212 356 -263 454 -266 523 -2 60 4 78 73 184 97 152 143 191 278 232
128 40 220 48 533 49 163 1 320 3 347 6 257 23 393 25 535 6 47 -7 99 -14 115
-16 17 -2 46 -7 65 -10 19 -3 103 -7 185 -10 157 -4 348 18 579 66 28 6 61 12
74 15 75 14 281 72 395 111 72 24 139 46 147 49 33 9 80 25 190 65 149 54 180
59 379 65 230 7 318 15 386 35 221 65 379 148 426 223 12 20 18 45 17 67 -3
34 -7 37 -108 87 -114 57 -150 89 -150 132 0 58 95 143 235 211 83 39 186 77
409 150 72 23 154 54 184 68 59 28 182 138 182 162 0 9 -32 35 -70 59 -133 81
-182 153 -160 231 5 19 33 63 62 98 86 103 437 443 663 643 27 24 70 62 95 85
113 101 266 208 585 409 194 122 273 180 287 210 14 31 -6 96 -40 128 -26 25
-59 35 -162 51 -76 13 -108 17 -135 21 -16 2 -43 6 -60 9 -16 2 -59 7 -95 11
-36 3 -101 11 -145 16 -44 6 -93 12 -110 14 -79 8 -209 26 -214 30 -4 2 -26 6
-49 10 -43 6 -123 23 -302 65 -173 40 -263 60 -509 111 -262 54 -346 83 -399
138 -68 71 -91 186 -67 336 12 83 63 194 180 395 40 69 82 141 93 160 10 19
48 85 82 145 100 175 170 328 177 386 l6 52 -71 -6 c-39 -4 -90 -11 -114 -16
-93 -20 -262 -28 -343 -16 -103 16 -182 71 -206 144 -14 41 -17 221 -6 326 9
84 27 158 100 410 88 305 95 381 39 404 -15 6 -54 14 -87 17 -100 8 -119 42
-140 239 -15 136 -2 713 20 925 8 79 23 365 30 590 10 337 22 536 34 590 9 39
7 42 -75 132 -50 55 -135 169 -145 197 -14 34 -143 231 -150 228 -4 -1 -67
-60 -140 -131 -170 -164 -289 -258 -534 -426 -208 -144 -434 -308 -475 -348
-57 -55 -170 -133 -245 -170 -130 -64 -287 -112 -350 -107 -17 2 -35 3 -42 4
-11 1 -95 84 -157 156 l-26 30 -67 -70 c-68 -71 -243 -261 -387 -420 -219
-241 -492 -515 -595 -597 -107 -86 -161 -111 -246 -113 -89 -4 -117 9 -198 87
-167 162 -344 454 -467 768 -22 58 -45 114 -50 125 -5 11 -34 92 -65 180 -67
193 -124 353 -134 380 -22 56 -85 177 -112 215 l-32 44 -21 -25 c-12 -14 -64
-101 -116 -193 -131 -233 -224 -326 -324 -326 -63 0 -261 98 -337 167 -69 63
-181 264 -290 524 -110 263 -174 379 -208 379 -13 0 -69 -47 -106 -90 -65 -74
-146 -148 -179 -164 -45 -21 -154 -26 -232 -10 -111 22 -188 69 -547 329 -117
85 -225 163 -242 175 -291 205 -419 304 -560 430 -136 121 -200 176 -219 190
-12 8 -30 22 -40 32 -21 19 -125 89 -331 223 -107 70 -400 283 -436 317 -8 7
-39 33 -69 58 -153 124 -430 391 -555 535 -85 97 -159 163 -186 165 -4 0 -13
-7 -20 -17z"/>
</g>
</svg>
