<?xml version="1.0" standalone="no"?>
<!DOCTYPE svg PUBLIC "-//W3C//DTD SVG 20010904//EN"
 "http://www.w3.org/TR/2001/REC-SVG-20010904/DTD/svg10.dtd">
<svg version="1.0" xmlns="http://www.w3.org/2000/svg"
 width="295.000000pt" height="295.000000pt" viewBox="0 0 295.000000 295.000000"
 preserveAspectRatio="xMidYMid meet">
<metadata>
Created by potrace 1.14, written by Peter Selinger 2001-2017
</metadata>
<g transform="translate(0.000000,295.000000) scale(0.100000,-0.100000)"
fill="#000000" stroke="none">
<path d="M0 1475 l0 -1475 1475 0 1475 0 0 1475 0 1475 -1475 0 -1475 0 0
-1475z m1795 845 c3 -5 22 -10 40 -10 46 0 101 -49 115 -100 6 -22 19 -58 30
-82 29 -64 27 -168 -5 -233 -13 -27 -25 -55 -25 -62 0 -16 -42 -93 -72 -134
-14 -19 -33 -49 -42 -66 -9 -18 -23 -33 -32 -33 -8 0 -33 -9 -56 -21 -45 -23
-83 -19 -108 10 -13 16 -27 18 -108 13 -86 -4 -92 -6 -86 -24 12 -38 -4 -65
-41 -72 -19 -4 -37 -11 -40 -15 -10 -17 6 -39 33 -46 l27 -7 -27 -10 c-30 -11
-36 -25 -14 -34 17 -7 30 -35 19 -43 -4 -3 -13 -15 -19 -26 -6 -11 -22 -21
-35 -23 -31 -4 -142 -45 -197 -72 -24 -12 -46 -19 -49 -16 -3 3 -19 -6 -35
-19 -16 -14 -42 -28 -56 -31 -15 -3 -39 -10 -55 -14 -15 -5 -72 -6 -126 -3
l-99 6 -26 39 c-30 45 -34 98 -11 142 8 15 15 36 15 45 1 29 34 76 88 125 42
39 61 50 95 53 58 6 216 47 252 65 17 9 45 19 62 23 43 9 50 23 16 31 -15 4
-52 21 -81 38 -29 17 -65 37 -80 45 -39 20 -62 42 -62 59 0 10 6 12 23 7 12
-4 40 -10 62 -14 22 -5 54 -15 70 -23 17 -9 53 -26 80 -38 28 -13 57 -27 65
-31 133 -75 159 -77 213 -14 l38 44 -29 15 c-43 22 -75 82 -75 137 1 48 32
122 59 137 9 5 20 31 25 57 6 33 21 63 47 94 21 25 46 58 56 73 10 15 30 30
46 33 16 3 34 13 41 21 13 16 65 19 74 4z m-971 -431 c35 -16 39 -36 11 -55
-27 -18 -58 -14 -90 11 -20 15 -20 15 4 35 27 23 40 25 75 9z m1189 -294 c36
-33 37 -36 37 -106 0 -85 -15 -109 -67 -109 -51 0 -73 43 -73 142 0 42 3 83 6
92 11 27 56 19 97 -19z m-380 -43 c33 -29 18 -56 -38 -68 -41 -9 -53 -8 -67 4
-21 18 -22 32 -6 66 10 23 15 25 52 20 23 -4 49 -14 59 -22z m112 -142 c9 -15
-31 -84 -70 -118 -37 -33 -89 -43 -98 -19 -5 13 60 83 117 125 33 24 42 27 51
12z m-257 -126 c2 -16 12 -24 35 -28 32 -6 32 -6 31 -64 -2 -78 -3 -80 -17
-53 -15 30 -31 29 -35 -4 -2 -14 -12 -30 -22 -35 -15 -8 -19 -21 -18 -69 1
-74 -32 -141 -70 -141 -22 0 -24 3 -18 31 3 18 14 37 23 44 20 15 23 70 9 148
-8 45 -7 49 13 54 14 4 24 16 28 35 3 15 10 31 14 34 14 8 0 24 -22 24 -15 0
-19 -7 -19 -33 0 -24 -10 -44 -34 -70 -71 -78 -86 -104 -86 -149 0 -53 -18
-82 -44 -72 -14 5 -16 13 -11 38 17 85 17 91 -4 110 -28 25 -27 53 2 61 44 12
66 28 77 55 6 15 29 40 50 56 22 16 40 35 40 42 0 9 12 12 38 10 29 -2 38 -8
40 -24z m438 4 c31 -35 54 -75 47 -82 -4 -3 -19 -6 -35 -6 -28 0 -29 -1 -26
-47 4 -64 -18 -67 -54 -9 -36 56 -37 98 -3 120 14 9 25 23 25 31 0 22 24 18
46 -7z m-1556 -19 c0 -11 -4 -17 -10 -14 -5 3 -10 13 -10 21 0 8 5 14 10 14 6
0 10 -9 10 -21z m1385 -23 c-4 -11 -8 -32 -9 -46 -1 -14 -4 -30 -8 -36 -4 -5
-10 -34 -14 -64 l-7 -53 31 6 c26 5 34 2 43 -15 16 -30 -5 -76 -26 -58 -8 7
-30 16 -48 19 -30 6 -32 10 -39 61 -9 68 -1 119 22 145 10 11 20 32 24 47 4
20 11 26 22 21 11 -4 13 -12 9 -27z m-249 -193 c-10 -10 -19 5 -10 18 6 11 8
11 12 0 2 -7 1 -15 -2 -18z m-598 -65 c22 -22 14 -57 -14 -64 -52 -13 -95 31
-62 64 15 15 61 15 76 0z m952 -29 c0 -32 -42 -102 -52 -87 -14 23 -8 54 15
81 27 32 37 33 37 6z m265 -49 c4 -6 -7 -10 -25 -10 -18 0 -29 4 -25 10 3 6
15 10 25 10 10 0 22 -4 25 -10z m-375 -86 c0 -9 -5 -14 -12 -12 -18 6 -21 28
-4 28 9 0 16 -7 16 -16z m24 -80 c17 -16 22 -79 7 -88 -4 -3 -14 13 -20 35 -7
23 -15 47 -18 55 -7 19 12 18 31 -2z m-754 -194 c0 -11 -4 -20 -10 -20 -5 0
-10 9 -10 20 0 11 5 20 10 20 6 0 10 -9 10 -20z m169 -13 c14 -18 4 -27 -29
-27 -33 0 -43 9 -29 27 15 17 43 17 58 0z m-638 -472 c-1 -14 -64 -12 -68 2
-2 6 4 13 14 15 23 5 55 -5 54 -17z"/>
<path d="M1630 2160 c0 -5 7 -7 15 -4 8 4 15 8 15 10 0 2 -7 4 -15 4 -8 0 -15
-4 -15 -10z"/>
<path d="M1770 2158 c0 -6 7 -19 15 -28 9 -10 17 -49 21 -103 5 -59 11 -87 19
-87 24 0 36 29 37 94 1 63 -1 69 -32 101 -34 35 -60 45 -60 23z"/>
<path d="M1730 1853 c0 -41 3 -54 10 -43 13 20 13 87 0 95 -6 4 -10 -16 -10
-52z"/>
<path d="M1286 1481 c-9 -14 29 -32 49 -25 9 4 14 12 12 18 -5 14 -53 20 -61
7z"/>
</g>
</svg>
