<?xml version="1.0" standalone="no"?>
<!DOCTYPE svg PUBLIC "-//W3C//DTD SVG 20010904//EN"
 "http://www.w3.org/TR/2001/REC-SVG-20010904/DTD/svg10.dtd">
<svg version="1.0" xmlns="http://www.w3.org/2000/svg"
 width="512.000000pt" height="512.000000pt" viewBox="0 0 512.000000 512.000000"
 preserveAspectRatio="xMidYMid meet">
<metadata>
Created by potrace 1.14, written by Peter Selinger 2001-2017
</metadata>
<g transform="translate(0.000000,512.000000) scale(0.100000,-0.100000)"
fill="#000000" stroke="none">
<path d="M4580 4699 c-34 -8 -763 -165 -2034 -439 -433 -93 -603 -127 -612
-119 -15 12 -21 52 -33 207 -5 77 -13 118 -23 128 -12 13 -37 9 -199 -25 -101
-22 -438 -92 -749 -156 -413 -84 -568 -120 -577 -132 -20 -27 -26 -79 -20
-183 6 -109 -4 -178 -26 -195 -9 -6 -53 -19 -98 -29 -56 -12 -89 -25 -105 -41
l-24 -24 0 -273 c0 -634 35 -1581 75 -2048 30 -349 36 -407 51 -513 15 -99 15
-110 0 -126 -24 -26 -20 -61 12 -112 47 -73 64 -83 135 -81 74 1 132 14 1202
262 697 162 695 161 748 162 65 0 89 -19 153 -118 29 -43 73 -108 99 -144 240
-332 990 -458 1519 -254 151 58 286 150 345 234 58 82 262 391 293 443 53 90
115 219 146 307 17 47 37 99 46 115 9 17 16 37 16 46 0 8 11 31 25 49 14 19
25 41 24 50 -1 8 0 17 1 20 32 84 -19 421 -95 626 -101 270 -248 489 -436 650
-279 239 -588 354 -947 354 -239 0 -416 -41 -629 -145 -342 -168 -612 -470
-728 -815 -26 -80 -25 -139 4 -159 12 -7 21 -20 21 -27 0 -17 38 -56 44 -45 3
4 -1 25 -9 47 -20 56 -18 74 5 44 10 -14 17 -27 15 -29 -3 -2 7 -17 20 -33 14
-16 26 -37 26 -46 1 -9 3 -24 4 -32 1 -8 3 -20 4 -26 2 -21 118 -75 156 -72
26 1 39 -3 49 -18 8 -11 33 -26 55 -33 34 -10 64 -38 66 -61 0 -8 40 -44 64
-58 19 -11 24 -10 41 10 l18 23 11 -28 c13 -34 14 -104 2 -109 -5 -1 -20 -20
-34 -41 -21 -30 -24 -43 -17 -62 6 -15 6 -27 0 -30 -15 -9 -12 -36 4 -54 8 -9
34 -53 58 -99 35 -67 52 -88 92 -114 33 -22 52 -43 57 -62 5 -15 8 -105 9
-200 1 -207 1 -213 -8 -201 -4 6 -14 11 -22 13 -32 7 -190 89 -183 95 3 4 -1
7 -10 7 -10 0 -17 5 -17 10 0 6 -8 10 -18 10 -20 0 -54 35 -44 46 4 4 1 4 -6
0 -7 -4 -15 -1 -18 8 -3 9 -11 13 -17 9 -6 -4 -8 0 -4 10 4 11 2 14 -8 10 -15
-5 -77 55 -192 184 -83 93 -93 105 -93 120 0 7 -4 13 -8 13 -12 0 -47 63 -44
79 2 7 -1 10 -6 7 -5 -3 -20 20 -32 52 -13 31 -28 64 -35 72 -14 19 -54 164
-57 207 -3 51 -18 39 -18 -14 0 -125 94 -499 166 -660 8 -17 14 -45 14 -62 0
-24 -6 -33 -32 -44 -38 -16 -169 -49 -207 -52 -14 -2 -39 -8 -54 -14 -16 -6
-33 -9 -38 -6 -5 3 -17 1 -28 -4 -10 -6 -75 -22 -143 -36 -67 -14 -130 -28
-138 -32 -16 -6 -56 -14 -80 -15 -8 0 -19 -4 -25 -8 -9 -7 -64 -20 -140 -33
-11 -2 -27 -7 -35 -10 -8 -3 -28 -8 -45 -11 -65 -11 -212 -45 -238 -55 -16 -6
-44 -11 -63 -11 -20 0 -45 -5 -57 -12 -12 -6 -31 -13 -42 -14 -11 -2 -40 -8
-65 -15 -25 -6 -56 -13 -70 -15 -14 -2 -54 -12 -89 -20 -36 -9 -72 -17 -80
-19 -9 -2 -31 -8 -49 -14 -18 -5 -36 -10 -40 -10 -17 -2 -78 -13 -95 -18 -16
-4 -17 -2 -9 14 28 53 62 283 82 553 6 80 13 177 16 215 18 237 22 381 21 820
0 270 -4 640 -9 824 -9 321 -9 336 10 360 10 14 30 31 43 38 24 11 155 40
2214 489 644 140 1251 272 1350 294 514 113 845 183 890 189 l50 7 -28 18
c-25 17 -34 18 -80 8 -29 -6 -196 -43 -372 -81 -568 -124 -1478 -321 -2830
-612 -280 -60 -591 -127 -690 -149 -99 -21 -256 -55 -350 -75 -189 -40 -209
-48 -239 -88 -21 -28 -21 -36 -23 -725 -2 -383 -6 -762 -11 -842 l-8 -145 -8
105 c-4 58 -11 177 -15 265 -6 129 -8 142 -9 65 -1 -52 3 -243 9 -425 10 -317
5 -540 -11 -530 -7 4 -21 178 -39 465 -5 69 -9 98 -9 65 -1 -33 5 -179 13
-325 17 -304 19 -506 6 -514 -9 -6 -22 85 -47 324 l-13 125 5 -110 c3 -60 12
-177 20 -260 16 -174 17 -218 5 -211 -10 7 -37 114 -51 206 -49 334 -109 1657
-110 2420 0 224 3 237 57 259 15 6 237 56 493 111 256 56 1246 270 2200 476
954 206 1747 378 1763 381 35 7 36 35 2 68 -25 26 -38 28 -95 14z m-1452
-1494 c-3 -3 -9 2 -12 12 -6 14 -5 15 5 6 7 -7 10 -15 7 -18z m295 -31 c56 9
78 -7 73 -52 -3 -20 -5 -39 -6 -42 -2 -3 -2 -8 -1 -12 0 -4 -6 -19 -13 -33
-12 -23 -12 -34 0 -74 7 -25 14 -47 14 -48 0 -2 8 -3 18 -3 10 0 23 -5 29 -11
9 -9 25 2 63 45 33 35 60 56 74 56 12 0 37 9 57 19 20 11 54 22 75 26 65 11
124 35 124 52 0 38 65 54 129 32 25 -9 30 -15 26 -30 -5 -16 -1 -19 22 -19 22
0 25 -2 13 -10 -12 -8 -11 -10 8 -10 14 0 22 6 22 16 0 18 28 14 84 -11 17 -8
21 -12 9 -9 -13 3 -23 1 -23 -4 0 -5 17 -13 38 -17 40 -7 82 -30 82 -44 0 -5
-17 -18 -37 -28 -40 -21 -49 -39 -39 -78 7 -27 33 -40 52 -24 7 6 19 9 26 6 9
-3 6 -7 -7 -13 -27 -10 -35 -25 -28 -51 4 -20 0 -24 -26 -29 -17 -4 -31 -13
-31 -20 0 -8 -4 -14 -8 -14 -5 0 -18 -9 -30 -20 -24 -23 -71 -44 -89 -41 -6 1
-14 -3 -18 -9 -3 -5 -2 -10 4 -10 19 0 41 -32 41 -61 l0 -29 -65 0 -65 0 -2
-37 c-1 -21 -2 -49 -3 -63 -1 -17 5 -27 20 -30 33 -9 31 -45 -5 -71 -18 -14
-34 -38 -41 -61 -5 -21 -13 -38 -18 -38 -4 0 -23 -14 -41 -30 l-34 -30 -436 0
-435 1 -3 -156 c-2 -152 -3 -156 -25 -164 -28 -11 -77 -3 -96 16 -10 10 -17
11 -24 4 -16 -16 -27 -13 -21 4 9 22 -56 -12 -82 -44 -18 -21 -24 -23 -36 -13
-9 7 -27 10 -44 6 -22 -4 -34 0 -47 14 -16 17 -17 26 -7 61 6 23 8 46 5 51 -3
6 -24 10 -46 10 -45 0 -45 5 -12 78 9 18 13 35 10 39 -13 12 -58 -9 -67 -31
-9 -24 -56 -41 -84 -30 -22 8 -39 60 -32 96 18 88 78 148 129 129 18 -7 30 -6
43 4 40 30 122 7 116 -33 -4 -27 16 -65 29 -56 6 3 9 27 8 53 -4 64 5 83 52
112 60 35 82 58 76 80 -3 10 0 19 5 19 6 0 21 11 33 24 12 13 38 29 58 37 20
7 36 15 35 18 -2 22 7 31 45 46 67 27 73 29 52 12 -24 -18 -15 -33 12 -18 10
6 35 17 56 25 20 8 37 20 37 27 0 8 -4 8 -12 1 -11 -8 -48 -10 -67 -3 -2 0 4
12 13 25 19 30 8 40 -30 26 -39 -15 -41 -4 -2 14 19 9 54 16 79 15 24 -1 55 3
68 10 37 20 38 2 1 -32 l-34 -32 42 -3 c23 -2 42 -8 42 -13 0 -6 5 -7 10 -4
16 10 12 55 -5 55 -19 0 -19 13 0 50 14 27 14 30 -15 57 -17 15 -30 38 -30 50
0 12 -3 28 -6 37 -5 14 -8 14 -30 0 -29 -20 -58 -11 -50 14 7 20 -19 37 -66
45 -23 3 -30 -1 -43 -29 -9 -19 -20 -34 -26 -34 -5 0 -7 -11 -3 -24 6 -26 -25
-56 -58 -56 -12 0 -18 -8 -18 -24 0 -26 -24 -51 -40 -41 -5 3 -8 19 -5 35 4
25 0 30 -38 49 -24 12 -50 21 -59 21 -10 0 -15 9 -15 25 0 32 41 65 117 95 30
12 61 26 67 32 9 7 13 7 13 0 0 -6 -8 -15 -17 -21 -14 -7 -6 -9 29 -8 27 1 48
4 48 6 0 3 -10 16 -22 30 -13 14 -16 21 -9 14 17 -15 58 4 81 36 15 22 40 28
40 10 0 -8 4 -9 13 0 8 6 17 8 20 4 4 -3 -1 -12 -11 -19 -21 -16 0 -19 29 -4
11 6 19 7 19 2 0 -15 -47 -42 -74 -42 -14 0 -28 -4 -31 -10 -4 -6 6 -10 24
-10 16 0 34 -6 38 -13 7 -11 55 -37 70 -37 3 0 0 7 -8 16 -11 13 -9 14 13 9
30 -8 45 9 27 31 -15 19 -4 31 15 15 10 -9 20 -9 40 0 32 15 33 23 2 37 -17 8
-23 17 -19 30 3 14 -4 23 -31 36 -20 9 -36 21 -36 26 0 6 -7 10 -16 10 -24 0
-9 14 38 37 62 31 70 32 93 10 15 -14 29 -17 58 -13z m-368 16 c7 -12 -2 -12
-30 0 -19 8 -19 9 2 9 12 1 25 -3 28 -9z m-75 -28 c0 -15 -71 -35 -82 -24 -8
8 0 14 23 20 44 13 59 14 59 4z m-74 -46 c7 -8 19 -16 26 -19 18 -6 8 -13 -27
-20 -16 -4 -24 -4 -17 -1 6 3 12 10 12 15 0 6 -4 7 -10 4 -17 -11 -32 5 -19
21 14 17 17 17 35 0z m137 -16 c-4 -14 0 -20 11 -20 24 0 19 -15 -10 -35 -25
-16 -26 -16 -19 4 4 12 2 21 -4 21 -12 0 -15 33 -4 43 14 15 31 6 26 -13z
m484 -36 c-3 -3 -12 -4 -19 -1 -8 3 -5 6 6 6 11 1 17 -2 13 -5z m-647 -10 c0
-8 -19 -13 -24 -6 -3 5 1 9 9 9 8 0 15 -2 15 -3z m1620 -197 c0 -35 -21 -54
-65 -61 -29 -5 -36 -4 -25 3 8 6 11 11 5 12 -5 0 6 6 25 13 19 7 37 21 38 31
3 10 0 15 -7 11 -6 -4 -11 -2 -11 3 0 6 9 11 20 11 14 0 20 -7 20 -23z m-135
-17 c3 -5 1 -10 -4 -10 -6 0 -11 5 -11 10 0 6 2 10 4 10 3 0 8 -4 11 -10z
m-1699 -97 c-11 -11 -19 6 -11 24 8 17 8 17 12 0 3 -10 2 -21 -1 -24z m134
-78 c19 -23 2 -34 -50 -32 -50 2 -65 13 -32 23 9 3 24 9 32 14 22 13 36 12 50
-5z m-34 -66 c-14 -11 -26 -26 -26 -34 0 -7 -7 -18 -15 -25 -12 -10 -15 -10
-15 3 0 22 48 77 67 77 11 0 7 -7 -11 -21z m94 5 c0 -8 -4 -13 -9 -9 -5 3 -17
-5 -25 -17 -9 -12 -17 -18 -17 -13 -7 53 -7 55 22 55 20 0 29 -5 29 -16z
m1849 -16 c19 -31 19 -34 3 -40 -29 -11 -62 -9 -62 5 0 17 23 67 32 67 3 0 15
-15 27 -32z m-289 -9 c0 -4 16 -14 35 -23 20 -10 35 -24 35 -34 0 -19 37 -83
54 -94 6 -4 15 0 19 8 7 12 12 12 22 4 8 -7 19 -9 25 -5 8 5 14 -5 12 -25 0
-3 16 -4 37 -2 31 3 39 0 48 -21 12 -27 7 -39 -23 -55 -21 -11 -88 -1 -125 18
-23 13 -49 2 -49 -19 0 -10 -3 -20 -6 -24 -7 -7 -52 11 -76 31 -10 8 -26 16
-35 17 -42 4 -52 15 -46 52 l6 35 -83 -6 c-45 -4 -95 -13 -112 -22 -31 -16
-83 -16 -83 1 0 6 11 12 25 13 24 4 70 38 68 51 -2 21 5 32 32 46 16 8 29 21
27 28 -1 7 10 12 29 12 18 1 38 6 46 13 12 10 23 5 59 -28 24 -23 52 -48 62
-56 23 -19 13 -34 -21 -34 -26 -1 -26 -1 -8 -15 11 -8 22 -15 26 -15 10 0 40
57 33 64 -3 3 2 6 13 6 17 0 16 3 -6 20 -14 11 -30 20 -36 20 -13 0 -44 43
-44 60 0 6 7 6 20 -2 11 -7 20 -16 20 -19z m-1514 -6 c-10 -10 -46 -11 -46 -1
0 4 12 8 27 8 14 0 23 -3 19 -7z m-70 -28 c-11 -8 -29 -15 -40 -15 -27 0 -9
17 24 23 14 2 27 5 30 5 3 1 -4 -5 -14 -13z m1767 -76 c3 -10 2 -19 -2 -19
-11 0 -31 23 -31 37 0 19 27 4 33 -18z m-790 -287 l137 -2 0 -299 c0 -253 2
-300 15 -311 13 -11 15 1 15 100 0 92 2 110 13 102 9 -8 24 -8 51 -1 20 6 45
7 56 4 10 -3 33 1 49 9 43 23 88 21 101 -4 7 -13 21 -20 40 -20 36 0 45 -24
31 -77 -10 -34 -8 -42 18 -78 48 -68 69 -160 44 -196 -17 -23 -21 -95 -11
-166 3 -18 2 -30 -2 -28 -4 2 -13 -7 -20 -20 -7 -14 -20 -25 -28 -25 -9 0 -13
-3 -9 -6 8 -8 -64 -70 -77 -66 -6 2 -8 0 -4 -4 10 -10 -32 -45 -45 -37 -5 3
-7 1 -4 -4 4 -6 -8 -18 -27 -27 -18 -8 -39 -22 -46 -31 -7 -8 -16 -12 -21 -9
-5 3 -9 1 -9 -3 0 -5 -9 -14 -21 -21 -17 -11 -20 -11 -14 0 3 7 1 6 -7 -3 -17
-21 -74 -50 -82 -42 -3 4 -6 0 -6 -7 0 -7 -3 -11 -6 -7 -4 3 -19 0 -34 -8 -15
-8 -31 -11 -34 -7 -4 3 -11 1 -15 -7 -8 -13 -71 -33 -104 -32 -9 0 -15 -3 -13
-7 3 -4 -3 -8 -12 -9 -20 -2 -59 -10 -87 -17 -11 -3 -36 -9 -56 -14 -20 -5
-42 -12 -48 -16 -6 -4 -11 -3 -11 3 0 5 -8 8 -17 6 -10 -2 -18 -4 -18 -6 0 -7
-196 -6 -200 1 -4 6 -13 5 -24 -2 -20 -12 -107 -3 -116 13 -4 5 -11 7 -16 4
-5 -4 -9 5 -9 18 0 17 9 27 33 38 26 12 32 19 32 46 0 24 5 33 20 37 24 6 90
137 90 179 0 32 25 55 67 64 35 7 53 29 67 78 18 67 21 65 -89 65 -91 0 -118
8 -90 25 6 3 10 26 10 50 l0 43 -62 -5 c-62 -6 -63 -6 -45 14 11 12 17 36 17
64 l0 44 -77 -3 -78 -4 23 24 c22 24 22 28 22 311 l0 286 113 3 c112 3 371 3
630 0z"/>
<path d="M4170 3060 c0 -5 5 -10 10 -10 6 0 10 5 10 10 0 6 -4 10 -10 10 -5 0
-10 -4 -10 -10z"/>
<path d="M3874 3008 c-8 -13 9 -38 31 -44 24 -6 105 12 105 24 -1 20 -20 27
-73 27 -33 0 -61 -3 -63 -7z"/>
<path d="M4113 2865 c-16 -11 -22 -12 -25 -3 -3 7 -7 5 -11 -6 -4 -10 -3 -15
3 -11 6 3 10 -3 10 -13 0 -11 10 -27 23 -35 16 -12 19 -18 10 -24 -7 -5 -14
-18 -16 -28 -1 -11 -7 -26 -11 -34 -6 -9 -5 -12 1 -8 6 4 30 9 54 12 39 5 58
17 59 38 0 4 -4 7 -9 7 -14 0 -53 68 -46 80 3 5 1 10 -5 10 -7 0 -10 7 -6 15
7 19 -4 19 -31 0z"/>
<path d="M4049 2797 c-17 -13 -34 -67 -22 -67 30 1 53 16 62 40 7 23 6 30 -6
34 -18 7 -15 8 -34 -7z"/>
<path d="M3165 2690 c3 -5 11 -10 16 -10 6 0 7 5 4 10 -3 6 -11 10 -16 10 -6
0 -7 -4 -4 -10z"/>
<path d="M2655 2135 c-20 -16 -20 -16 1 -6 28 13 92 -6 100 -31 3 -12 15 -18
35 -18 38 0 36 10 -9 39 -48 31 -101 38 -127 16z"/>
<path d="M2845 2070 c3 -5 -2 -10 -12 -11 -12 0 -8 -4 9 -9 14 -4 41 -5 60 -1
32 7 32 8 11 19 -26 15 -77 16 -68 2z"/>
<path d="M2750 2050 c0 -6 7 -10 15 -10 8 0 15 2 15 4 0 2 -7 6 -15 10 -8 3
-15 1 -15 -4z"/>
<path d="M2950 2050 c0 -5 5 -10 10 -10 6 0 10 5 10 10 0 6 -4 10 -10 10 -5 0
-10 -4 -10 -10z"/>
<path d="M4310 2540 c0 -5 5 -10 10 -10 6 0 10 5 10 10 0 6 -4 10 -10 10 -5 0
-10 -4 -10 -10z"/>
<path d="M4310 2500 c0 -11 5 -20 10 -20 6 0 10 9 10 20 0 11 -4 20 -10 20 -5
0 -10 -9 -10 -20z"/>
<path d="M4570 2400 c20 -13 40 -13 40 0 0 6 -12 10 -27 10 -22 0 -25 -2 -13
-10z"/>
<path d="M3100 1875 l0 -275 50 0 50 0 0 -50 0 -50 40 0 40 0 0 -40 0 -40 231
0 c213 0 230 1 228 18 -5 55 -1 62 41 62 l40 0 0 50 0 50 50 0 50 0 -2 273 -3
272 -87 3 c-56 2 -88 -1 -88 -8 0 -14 -37 -13 -43 3 -3 8 -10 6 -21 -8 -16
-20 -16 -20 -31 -1 -23 30 -30 11 -30 -79 0 -46 -4 -87 -8 -91 -17 -17 -27 24
-25 98 2 73 -4 99 -18 85 -4 -3 -7 -49 -8 -101 0 -52 -5 -98 -9 -102 -17 -17
-27 24 -27 114 0 50 -4 92 -9 92 -14 0 -24 -55 -16 -90 10 -45 -4 -120 -21
-113 -11 4 -14 29 -14 104 0 54 -4 99 -9 99 -16 0 -21 -30 -21 -116 0 -70 -2
-82 -15 -78 -12 5 -15 26 -15 100 0 52 -4 94 -9 94 -15 0 -21 -29 -21 -106 0
-61 -3 -72 -15 -68 -17 7 -22 94 -5 94 6 0 10 11 10 25 0 14 -4 25 -10 25 -5
0 -10 7 -10 15 0 20 -10 19 -25 -1 -10 -15 -13 -15 -27 0 -13 12 -37 16 -102
16 l-86 0 0 -275z m570 144 c0 -42 -15 -54 -22 -16 -5 32 2 68 13 62 5 -4 9
-24 9 -46z m-361 -1 c0 -27 -2 -29 -8 -13 -5 11 -6 26 -4 33 8 21 13 13 12
-20z"/>
<path d="M3840 1512 c0 -38 4 -62 11 -62 7 0 9 19 6 55 -6 77 -17 81 -17 7z"/>
<path d="M3753 1395 c0 -33 2 -45 4 -27 2 18 2 45 0 60 -2 15 -4 0 -4 -33z"/>
<path d="M363 2880 c0 -30 2 -43 4 -27 2 15 2 39 0 55 -2 15 -4 2 -4 -28z"/>
<path d="M374 2440 c0 -63 1 -89 3 -57 2 31 2 83 0 115 -2 31 -3 5 -3 -58z"/>
<path d="M242 2315 c0 -16 2 -22 5 -12 2 9 2 23 0 30 -3 6 -5 -1 -5 -18z"/>
<path d="M313 2215 c0 -33 2 -45 4 -27 2 18 2 45 0 60 -2 15 -4 0 -4 -33z"/>
<path d="M2071 2124 c0 -11 3 -14 6 -6 3 7 2 16 -1 19 -3 4 -6 -2 -5 -13z"/>
<path d="M253 2030 c0 -30 2 -43 4 -27 2 15 2 39 0 55 -2 15 -4 2 -4 -28z"/>
<path d="M2063 2035 c0 -22 2 -30 4 -17 2 12 2 30 0 40 -3 9 -5 -1 -4 -23z"/>
<path d="M323 1930 c0 -41 2 -58 4 -37 2 20 2 54 0 75 -2 20 -4 3 -4 -38z"/>
<path d="M2050 1890 c0 -16 4 -30 8 -30 5 0 7 14 4 30 -2 17 -6 30 -8 30 -2 0
-4 -13 -4 -30z"/>
<path d="M263 1800 c0 -30 2 -43 4 -27 2 15 2 39 0 55 -2 15 -4 2 -4 -28z"/>
<path d="M273 1605 c0 -33 2 -45 4 -27 2 18 2 45 0 60 -2 15 -4 0 -4 -33z"/>
<path d="M283 1435 c0 -33 2 -45 4 -27 2 18 2 45 0 60 -2 15 -4 0 -4 -33z"/>
</g>
</svg>
